<svg xmlns="http://www.w3.org/2000/svg" viewBox="0 0 500 500"><g id="freepik--Gears--inject-20"><g id="freepik--gears--inject-20"><path d="M241.44,421.35,233.57,425a2.85,2.85,0,0,1-1.8.11,46.12,46.12,0,0,0-6.11-1.45,1.49,1.49,0,0,1-1.14-1.11l-1-5.18a1.22,1.22,0,0,0-1.15-1H211a1.2,1.2,0,0,0-1.14,1l-1,5.18a1.49,1.49,0,0,1-1.14,1.11,45.61,45.61,0,0,0-6.1,1.45,2.88,2.88,0,0,1-1.81-.11l-7.86-3.64a2.07,2.07,0,0,0-1.72.07l-7.77,4.48a.58.58,0,0,0-.05,1l6.15,4.43a.81.81,0,0,1,.12,1.26,15.92,15.92,0,0,0-2.2,3.05,1.91,1.91,0,0,1-1.4.93l-10.34.65a1.06,1.06,0,0,0-1,1v5.77a1,1,0,0,0,1,1l10.34.66a1.89,1.89,0,0,1,1.4.93,15.56,15.56,0,0,0,2.2,3,.83.83,0,0,1-.12,1.27l-6.15,4.42a.58.58,0,0,0,.05,1.05l7.77,4.49a2.1,2.1,0,0,0,1.72.07l7.86-3.64a2.85,2.85,0,0,1,1.8-.11,46.12,46.12,0,0,0,6.11,1.45,1.49,1.49,0,0,1,1.14,1.11l1,5.18a1.21,1.21,0,0,0,1.15,1h11.42a1.21,1.21,0,0,0,1.15-1l1-5.18a1.49,1.49,0,0,1,1.14-1.11,46.12,46.12,0,0,0,6.11-1.45,2.85,2.85,0,0,1,1.8.11l7.87,3.64a2.08,2.08,0,0,0,1.71-.07l7.77-4.49a.58.58,0,0,0,.05-1.05L244.82,451a.83.83,0,0,1-.12-1.27,15.56,15.56,0,0,0,2.2-3,1.9,1.9,0,0,1,1.4-.93l10.34-.66a1,1,0,0,0,1-1v-5.77a1.05,1.05,0,0,0-1-1l-10.34-.65a1.9,1.9,0,0,1-1.4-.93,15.92,15.92,0,0,0-2.2-3.05.81.81,0,0,1,.12-1.26L251,427a.58.58,0,0,0-.05-1l-7.77-4.48A2.08,2.08,0,0,0,241.44,421.35ZM229.8,433.63c7.24,4.18,7.24,11,0,15.14s-19,4.18-26.23,0-7.25-11,0-15.14S222.55,429.45,229.8,433.63Z" style="fill:#e6e6e6"></path><path d="M302,401.71l-5.83,2.7a2.12,2.12,0,0,1-1.34.08,34.62,34.62,0,0,0-4.52-1.07,1.13,1.13,0,0,1-.85-.82l-.72-3.84a.92.92,0,0,0-.86-.71h-8.45a.9.9,0,0,0-.85.71l-.73,3.84a1.13,1.13,0,0,1-.85.82,34.62,34.62,0,0,0-4.52,1.07,2.09,2.09,0,0,1-1.33-.08l-5.83-2.7a1.59,1.59,0,0,0-1.28.06l-5.75,3.32a.43.43,0,0,0,0,.78l4.56,3.28a.6.6,0,0,1,.08.93,11.83,11.83,0,0,0-1.62,2.26,1.43,1.43,0,0,1-1,.69l-7.66.48a.78.78,0,0,0-.72.77v4.27a.77.77,0,0,0,.72.76l7.66.49a1.4,1.4,0,0,1,1,.69,11.47,11.47,0,0,0,1.62,2.25.61.61,0,0,1-.08.94L258.21,427a.43.43,0,0,0,0,.78l5.75,3.32a1.57,1.57,0,0,0,1.27.06l5.83-2.71a2.27,2.27,0,0,1,1.34-.08,33.1,33.1,0,0,0,4.52,1.08,1.13,1.13,0,0,1,.85.82l.73,3.84a.9.9,0,0,0,.85.71h8.45a.92.92,0,0,0,.86-.71l.72-3.84a1.13,1.13,0,0,1,.85-.82,33.1,33.1,0,0,0,4.52-1.08,2.27,2.27,0,0,1,1.34.08l5.83,2.71a1.56,1.56,0,0,0,1.27-.06l5.75-3.32a.43.43,0,0,0,0-.78l-4.56-3.28a.61.61,0,0,1-.08-.94,11.47,11.47,0,0,0,1.62-2.25,1.4,1.4,0,0,1,1-.69l7.66-.49a.77.77,0,0,0,.72-.76v-4.27a.78.78,0,0,0-.72-.77L307,413a1.39,1.39,0,0,1-1-.69,11.9,11.9,0,0,0-1.63-2.26.6.6,0,0,1,.08-.93l4.56-3.28a.43.43,0,0,0,0-.78l-5.75-3.32A1.56,1.56,0,0,0,302,401.71Zm-8.63,9.09c5.37,3.1,5.37,8.13,0,11.22s-14.06,3.1-19.43,0-5.37-8.12,0-11.22S288,407.71,293.33,410.8Z" style="fill:#e6e6e6"></path></g></g><g id="freepik--List--inject-20"><g id="freepik--Clipboard--inject-20"><g id="freepik--Board--inject-20"><g id="freepik--Window--inject-20"><path d="M248.67,27.55,78.45,125.71a7,7,0,0,0-3.18,5.51V443.3a7,7,0,0,0,3.19,5.5l.64.37a7.1,7.1,0,0,0,6.38,0L255.7,350.87a7,7,0,0,0,3.18-5.52V33.41a7,7,0,0,0-3.19-5.5l-.65-.37A7.07,7.07,0,0,0,248.67,27.55Z" style="fill:#6C63FF"></path><path d="M248.67,27.55,78.45,125.71a7,7,0,0,0-3.18,5.51V443.3a7,7,0,0,0,3.19,5.5l.64.37a7.1,7.1,0,0,0,6.38,0L255.7,350.87a7,7,0,0,0,3.18-5.52V33.41a7,7,0,0,0-3.19-5.5l-.65-.37A7.07,7.07,0,0,0,248.67,27.55Z" style="opacity:0.45"></path><path d="M258.88,345.58c0,2.8-2,4.58-4.4,6L86.69,448.43c-2.42,1.4-4.4.27-4.4-2.54V136.62h0A8.74,8.74,0,0,1,86.67,129L254.48,32.13a2.93,2.93,0,0,1,4.4,2.54h0Z" style="fill:#6C63FF"></path><path d="M258.88,345.58c0,2.8-2,4.58-4.4,6L86.69,448.43c-2.42,1.4-4.4.27-4.4-2.54V136.62h0A8.74,8.74,0,0,1,86.67,129L254.48,32.13a2.93,2.93,0,0,1,4.4,2.54h0Z" style="opacity:0.30000000000000004"></path><path d="M258.88,33.41v1.25a2.94,2.94,0,0,0-4.41-2.53L86.67,129a8.55,8.55,0,0,0-3.2,3.2.42.42,0,0,0,0,.1l-7.27-4.2a6.6,6.6,0,0,1,2.29-2.42L248.67,27.55a7.11,7.11,0,0,1,6.37,0l.65.37A7,7,0,0,1,258.88,33.41Z" style="fill:#6C63FF"></path><path d="M258.88,33.41v1.25a2.94,2.94,0,0,0-4.41-2.53L86.67,129a8.55,8.55,0,0,0-3.2,3.2.42.42,0,0,0,0,.1l-7.27-4.2a6.6,6.6,0,0,1,2.29-2.42L248.67,27.55a7.11,7.11,0,0,1,6.37,0l.65.37A7,7,0,0,1,258.88,33.41Z" style="opacity:0.2"></path></g></g><path id="freepik--shadow--inject-20" d="M254.73,332.69c0,2.88-2,4.72-4.53,6.16L91.62,430.41c-2.5,1.44-4.54.28-4.54-2.62V152.85h0A9,9,0,0,1,91.59,145L250.2,53.44a3,3,0,0,1,4.53,2.62V332.69Z" style="opacity:0.25"></path><g id="freepik--Form--inject-20"><g id="freepik--Paper--inject-20"><path d="M91.14,148.47l158-91.23a3,3,0,0,1,2.71,0l1.52.88a3,3,0,0,1,1.35,2.35V336.68a3,3,0,0,1-1.35,2.34l-158,91.23a3,3,0,0,1-2.71,0l-1.53-.88A3,3,0,0,1,89.79,427V150.81A3,3,0,0,1,91.14,148.47Z" style="fill:#f5f5f5"></path><path d="M95.05,430.4a2.44,2.44,0,0,1-.5.13l-.26,0a3.75,3.75,0,0,1-.82,0,2.62,2.62,0,0,1-.5-.13l-.3-.15-1.52-.87A3,3,0,0,1,89.79,427V150.82a2.64,2.64,0,0,1,.4-1.33l4.23,2.43a2.87,2.87,0,0,0-.4,1.34V429.47C94,430.21,94.46,430.57,95.05,430.4Z" style="fill:#e0e0e0"></path><path d="M253.38,58.12l-1.52-.88a3,3,0,0,0-2.71,0l-158,91.23a3,3,0,0,0-1.35,2.34v17.06L94,170.33,254.73,77.54V60.47A3,3,0,0,0,253.38,58.12Z" style="fill:#6C63FF"></path><path d="M253.38,58.12l-1.52-.88a3,3,0,0,0-2.71,0l-158,91.23a3,3,0,0,0-1.35,2.34v17.06L94,170.33,254.73,77.54V60.47A3,3,0,0,0,253.38,58.12Z" style="fill:#fff;opacity:0.4"></path><path d="M254.68,60.06c-.16-.55-.68-.73-1.3-.38l-158,91.23a2.67,2.67,0,0,0-1,1l-4.23-2.44a2.67,2.67,0,0,1,1-1l158-91.22a2.93,2.93,0,0,1,2.7,0l1.53.87A3,3,0,0,1,254.68,60.06Z" style="fill:#6C63FF"></path><path d="M254.68,60.06c-.16-.55-.68-.73-1.3-.38l-158,91.23a2.67,2.67,0,0,0-1,1l-4.23-2.44a2.67,2.67,0,0,1,1-1l158-91.22a2.93,2.93,0,0,1,2.7,0l1.53.87A3,3,0,0,1,254.68,60.06Z" style="fill:#fff;opacity:0.6000000000000001"></path><path d="M89.79,150.82v17.07L94,170.33V153.25a2.84,2.84,0,0,1,.4-1.33l-4.23-2.44A2.7,2.7,0,0,0,89.79,150.82Z" style="fill:#6C63FF"></path></g></g><g id="freepik--Clip--inject-20"><g id="freepik--shadow--inject-20" style="opacity:0.25"><path d="M218.18,68.67V82.25a11.63,11.63,0,0,1-5.33,9.22l-26.29,15.18c-1.3.75-2,2.25-2.82,3.82a15,15,0,0,1-2,3.32c-2,2.32-6.5,4.73-9.64,5.74a18.51,18.51,0,0,1-3.15.72c-.4.07-.84.13-1.3.18-2.86.39-6.44.87-8.53,2.09l-30.77,17.75a5.39,5.39,0,0,1-2.68.81,3.58,3.58,0,0,1-1.8-.47,4.39,4.39,0,0,1-2-4V123a11.62,11.62,0,0,1,5.32-9.22l10.34-6a.35.35,0,0,1,.14-.06,1.09,1.09,0,0,1,1.08,1.87.27.27,0,0,1-.12.09l-10.33,6a9.51,9.51,0,0,0-4.23,7.31v13.59a1.85,1.85,0,0,0,3.12,1.79L158,120.6c2.47-1.43,6.28-1.94,9.34-2.35l1.28-.18a16.81,16.81,0,0,0,2.8-.65c2.79-.88,6.94-3.14,8.64-5.08a13,13,0,0,0,1.71-2.85c.9-1.81,1.82-3.67,3.7-4.75l26.29-15.18A9.54,9.54,0,0,0,216,82.25V68.67a1.86,1.86,0,0,0-3.13-1.8L203.9,72a9.35,9.35,0,0,0-1.13-1.9l9-5.18a4,4,0,0,1,6.43,3.71Z"></path></g><g id="freepik--clip--inject-20"><path d="M199,68.92h0a2.75,2.75,0,0,1,2.78.26A8.65,8.65,0,0,1,205.69,76a2.75,2.75,0,0,1-1.16,2.54h0l-62.38,36-5.53-9.57Z" style="fill:#37474f"></path><path d="M139.4,109.75l65.15-37.63a8,8,0,0,0-2.77-2.94c-.13-.07-.25-.11-.38-.17l-64.14,37Z" style="fill:#455a64"></path><path d="M139.4,105.21c-2.16-1.25-3.91-.24-3.91,2.25a8.65,8.65,0,0,0,3.91,6.77c2.16,1.25,3.91.24,3.91-2.26A8.61,8.61,0,0,0,139.4,105.21Z" style="fill:#263238"></path><path d="M219.29,69.63V83.22A11.63,11.63,0,0,1,214,92.44l-26.29,15.17c-1.3.75-2,2.25-2.82,3.83a15,15,0,0,1-2,3.32c-2,2.31-6.5,4.73-9.64,5.73a17.55,17.55,0,0,1-3.16.73c-.39.07-.83.12-1.29.18-2.86.38-6.44.87-8.53,2.08l-30.77,17.76a5.4,5.4,0,0,1-2.68.8,3.55,3.55,0,0,1-1.8-.46,4.4,4.4,0,0,1-2-4.05V124a11.6,11.6,0,0,1,5.32-9.22l10.34-6a.46.46,0,0,1,.14-.05,1.08,1.08,0,0,1,1.08,1.86.28.28,0,0,1-.12.1l-10.33,6A9.49,9.49,0,0,0,125.2,124v13.58a1.85,1.85,0,0,0,3.12,1.8l30.77-17.77c2.47-1.42,6.29-1.94,9.35-2.35.45,0,.88-.12,1.27-.17a16.69,16.69,0,0,0,2.81-.65c2.79-.89,6.93-3.15,8.64-5.09a12.88,12.88,0,0,0,1.71-2.84c.9-1.81,1.82-3.68,3.7-4.76l26.29-15.17a9.54,9.54,0,0,0,4.22-7.31V69.63a1.85,1.85,0,0,0-3.12-1.8L205,73a9.26,9.26,0,0,0-1.13-1.9l9-5.18a4,4,0,0,1,6.43,3.7Z" style="fill:#455a64"></path></g></g><g id="freepik--Title--inject-20"><path d="M122.88,166.71c.18-.1.31-.11.39,0a.86.86,0,0,1,.23.42l4,11.42a.52.52,0,0,1,0,.14,1.16,1.16,0,0,1-.13.49.83.83,0,0,1-.31.35l-1.17.68c-.22.12-.37.15-.46.08a.56.56,0,0,1-.18-.26l-.7-2-5.14,3-.7,2.81a3.08,3.08,0,0,1-.18.46,1.05,1.05,0,0,1-.46.45l-1.17.68a.25.25,0,0,1-.31,0,.37.37,0,0,1-.13-.34.88.88,0,0,1,0-.16l4-16a3.81,3.81,0,0,1,.23-.68,1,1,0,0,1,.39-.41Zm.9,9L122,170.57l-1.79,7.22Z" style="fill:#455a64"></path><path d="M133.45,160.61a5.49,5.49,0,0,1,2.09-.78,2.05,2.05,0,0,1,1.49.35,2.73,2.73,0,0,1,.91,1.36,8.15,8.15,0,0,1,.38,2.25q.06,1.58,0,3.21a13.84,13.84,0,0,1-.38,2.7,10.53,10.53,0,0,1-.91,2.41,9.17,9.17,0,0,1-1.45,2,8.81,8.81,0,0,1-2.05,1.6l-4.1,2.37a.25.25,0,0,1-.31,0,.37.37,0,0,1-.13-.33v-14a1,1,0,0,1,.13-.48.87.87,0,0,1,.31-.36Zm2.67,4.45a4.31,4.31,0,0,0-.2-1.17,1.54,1.54,0,0,0-.51-.75,1.16,1.16,0,0,0-.84-.21,3.06,3.06,0,0,0-1.2.44l-2.18,1.26v9.77l2.26-1.31a4.77,4.77,0,0,0,1.16-.91,5.69,5.69,0,0,0,1.31-2.49,7.59,7.59,0,0,0,.2-1.42Q136.2,166.64,136.12,165.06Z" style="fill:#455a64"></path><path d="M144.21,165.3,147,153.36a2.69,2.69,0,0,1,.17-.46.82.82,0,0,1,.37-.39l1.23-.72a.27.27,0,0,1,.31,0,.4.4,0,0,1,.13.34v.07a.94.94,0,0,1,0,.16l-3.65,15.76a2.64,2.64,0,0,1-.23.69.91.91,0,0,1-.39.41l-1.3.75c-.17.1-.3.11-.39,0a.89.89,0,0,1-.23-.42L139.3,158a.79.79,0,0,1,0-.12v-.08a1.08,1.08,0,0,1,.13-.48.87.87,0,0,1,.31-.36l1.24-.71c.16-.1.29-.1.37,0a.62.62,0,0,1,.17.26Z" style="fill:#455a64"></path><path d="M155.41,147.93c.18-.1.31-.11.39,0a.81.81,0,0,1,.23.42l4,11.42a.52.52,0,0,1,0,.14,1.16,1.16,0,0,1-.13.49.9.9,0,0,1-.31.35l-1.17.68c-.22.12-.37.15-.46.08a.56.56,0,0,1-.18-.26l-.7-2-5.14,3-.7,2.81a3.08,3.08,0,0,1-.18.46,1.11,1.11,0,0,1-.46.45l-1.17.68a.25.25,0,0,1-.31,0,.39.39,0,0,1-.13-.34.44.44,0,0,1,0-.16l4-16a3.15,3.15,0,0,1,.23-.68,1,1,0,0,1,.39-.41Zm.9,9-1.79-5.15L152.73,159Z" style="fill:#455a64"></path><path d="M168.91,155.33c-.18.11-.33.13-.42,0a1,1,0,0,1-.21-.18l-4.56-6.4v8.95a1.08,1.08,0,0,1-.13.48.87.87,0,0,1-.31.36l-1.32.76a.25.25,0,0,1-.31,0,.37.37,0,0,1-.13-.33V145a1,1,0,0,1,.13-.48.87.87,0,0,1,.31-.36l1.14-.66c.18-.1.32-.12.42,0a1,1,0,0,1,.21.18l4.56,6.4v-8.95a1.08,1.08,0,0,1,.13-.48.87.87,0,0,1,.31-.36l1.32-.76a.25.25,0,0,1,.31,0,.37.37,0,0,1,.13.33v14a1,1,0,0,1-.13.48.87.87,0,0,1-.31.36Z" style="fill:#455a64"></path><path d="M180.62,133.38a.25.25,0,0,1,.31,0,.39.39,0,0,1,.13.33v1.54a1.12,1.12,0,0,1-.13.49.77.77,0,0,1-.31.35l-2.93,1.7v11.89a1.16,1.16,0,0,1-.13.49.83.83,0,0,1-.31.35l-1.32.76a.27.27,0,0,1-.31,0,.4.4,0,0,1-.13-.34V139.06l-2.93,1.69a.25.25,0,0,1-.31,0,.38.38,0,0,1-.13-.33v-1.55a1,1,0,0,1,.13-.48.87.87,0,0,1,.31-.36Z" style="fill:#455a64"></path><path d="M186.88,129.76c.18-.1.31-.11.39,0a.81.81,0,0,1,.23.42l4,11.42a.52.52,0,0,1,0,.14,1.16,1.16,0,0,1-.13.49.83.83,0,0,1-.31.35l-1.17.68c-.22.12-.37.15-.46.08a.56.56,0,0,1-.18-.26l-.7-2-5.14,3-.7,2.81a3.08,3.08,0,0,1-.18.46,1.05,1.05,0,0,1-.46.45l-1.17.68a.25.25,0,0,1-.31,0,.39.39,0,0,1-.13-.34.44.44,0,0,1,0-.16l4-16a3.81,3.81,0,0,1,.23-.68,1,1,0,0,1,.39-.41Zm.9,9L186,133.62l-1.79,7.22Z" style="fill:#455a64"></path><path d="M192.35,132.23a12.34,12.34,0,0,1,.36-2.59,10.55,10.55,0,0,1,.95-2.39,9.85,9.85,0,0,1,1.52-2.07,9.31,9.31,0,0,1,2.11-1.64,5.46,5.46,0,0,1,2.33-.86,2.4,2.4,0,0,1,1.47.32,2,2,0,0,1,.76,1,3.82,3.82,0,0,1,.26,1.08.9.9,0,0,1-.12.5.88.88,0,0,1-.32.34l-1.32.76c-.12.07-.22.09-.29,0a.33.33,0,0,1-.15-.16,2.54,2.54,0,0,0-.17-.28,1,1,0,0,0-.44-.35,1.47,1.47,0,0,0-.79-.11,3,3,0,0,0-1.22.45,5.19,5.19,0,0,0-2,2,6.23,6.23,0,0,0-.78,2.81c0,.56,0,1.15,0,1.78s0,1.22,0,1.75c0,1.19.3,1.91.78,2.17a2,2,0,0,0,2-.32,6.31,6.31,0,0,0,1.11-.81,5.09,5.09,0,0,0,.87-1.07,5.48,5.48,0,0,0,.57-1.35,6.84,6.84,0,0,0,.2-1.7v-.17l-2,1.15a.25.25,0,0,1-.31,0,.41.41,0,0,1-.13-.34v-1.54a1.16,1.16,0,0,1,.13-.49.9.9,0,0,1,.31-.35l3.75-2.16a.25.25,0,0,1,.31,0,.39.39,0,0,1,.13.33v2.39a11.24,11.24,0,0,1-.31,2.58,10.27,10.27,0,0,1-.93,2.42,9.67,9.67,0,0,1-1.55,2.13,9.55,9.55,0,0,1-2.16,1.7,5.52,5.52,0,0,1-2.15.8,2.08,2.08,0,0,1-1.51-.34,2.72,2.72,0,0,1-.93-1.34,7.62,7.62,0,0,1-.35-2.2c0-.27,0-.57,0-.9s0-.67,0-1,0-.69,0-1S192.34,132.51,192.35,132.23Z" style="fill:#455a64"></path><path d="M211.88,127.81a.25.25,0,0,1,.3,0,.4.4,0,0,1,.14.34v1.54a1,1,0,0,1-.14.49.88.88,0,0,1-.3.35l-7.15,4.13a.27.27,0,0,1-.31,0,.39.39,0,0,1-.13-.34v-14a1,1,0,0,1,.13-.49.9.9,0,0,1,.31-.35l7-4a.27.27,0,0,1,.31,0,.43.43,0,0,1,.12.34v1.54a1.14,1.14,0,0,1-.12.49.83.83,0,0,1-.31.35l-5.26,3v3.45l4.9-2.83a.27.27,0,0,1,.31,0,.43.43,0,0,1,.13.34v1.54a1.12,1.12,0,0,1-.13.49.83.83,0,0,1-.31.35l-4.9,2.83v3.61Z" style="fill:#455a64"></path><path d="M218.24,111.44a5.11,5.11,0,0,1,1.92-.72,2.53,2.53,0,0,1,1.39.18,1.83,1.83,0,0,1,.84.81,2.85,2.85,0,0,1,.31,1.15.87.87,0,0,1-.12.49.85.85,0,0,1-.32.35l-1.14.66c-.18.1-.32.14-.41.1a.63.63,0,0,1-.25-.24,1.13,1.13,0,0,0-.74-.51,2.29,2.29,0,0,0-1.48.44,5,5,0,0,0-.8.59,4.18,4.18,0,0,0-.67.73,3.61,3.61,0,0,0-.45.81,2.28,2.28,0,0,0-.16.84,1.33,1.33,0,0,0,.15.72.63.63,0,0,0,.52.24,3.54,3.54,0,0,0,1-.13l1.5-.41a7.18,7.18,0,0,1,1.69-.31,2,2,0,0,1,1.15.24,1.63,1.63,0,0,1,.67.84,4.28,4.28,0,0,1,.22,1.46,6.49,6.49,0,0,1-.33,2,8.19,8.19,0,0,1-.92,2,10.32,10.32,0,0,1-1.49,1.8,9.67,9.67,0,0,1-2,1.48,6.25,6.25,0,0,1-1.74.72,3,3,0,0,1-1.47,0,1.85,1.85,0,0,1-1-.74,2.85,2.85,0,0,1-.44-1.48.81.81,0,0,1,.13-.49.9.9,0,0,1,.31-.35l1.14-.66a.58.58,0,0,1,.43-.11.4.4,0,0,1,.24.25,2.21,2.21,0,0,0,.28.4.75.75,0,0,0,.44.25,1.69,1.69,0,0,0,.69,0,4.1,4.1,0,0,0,1-.46,8.32,8.32,0,0,0,1-.64,5.44,5.44,0,0,0,.8-.79,4.59,4.59,0,0,0,.55-.88,2.31,2.31,0,0,0,.21-1,.77.77,0,0,0-.23-.65.9.9,0,0,0-.69-.12,6.94,6.94,0,0,0-1.15.25c-.45.13-1,.27-1.58.41a5.25,5.25,0,0,1-1.42.2,1.53,1.53,0,0,1-1.6-1.18,5.08,5.08,0,0,1-.2-1.57,6.32,6.32,0,0,1,.33-2,8.23,8.23,0,0,1,.89-1.93,9.55,9.55,0,0,1,1.36-1.71A8.11,8.11,0,0,1,218.24,111.44Z" style="fill:#455a64"></path></g><g id="freepik--Image--inject-20"><g style="opacity:0.2"><path d="M106.39,201.67l150.18-86.74c.63-.36,1.15-.07,1.15.67v35.83a2.56,2.56,0,0,1-1.15,2L106.39,240.16c-.63.37-1.14.07-1.14-.66V203.66A2.55,2.55,0,0,1,106.39,201.67Z"></path></g><path d="M264.54,119.68a1.52,1.52,0,0,0-1.35.18L114.76,205.6a4.48,4.48,0,0,0-2,3.51v34a1.44,1.44,0,0,0,.55,1.29c-.35-.22-3.41-2-3.78-2.18a1.43,1.43,0,0,1-.58-1.3v-34a4.49,4.49,0,0,1,2-3.51l148.42-85.74a1.44,1.44,0,0,1,1.45-.14C261.16,117.73,263.82,119.24,264.54,119.68Z" style="fill:#6C63FF"></path><g style="opacity:0.2"><path d="M264.54,119.68c-.72-.44-3.38-2-3.71-2.15a1.44,1.44,0,0,0-1.45.14L111,203.41a4.09,4.09,0,0,0-1.43,1.51l3.8,2.2a4.12,4.12,0,0,1,1.43-1.52l148.43-85.74A1.52,1.52,0,0,1,264.54,119.68Z" style="fill:#fff"></path></g><path d="M114.76,205.6l148.43-85.74c1.12-.64,2-.12,2,1.17v34a4.45,4.45,0,0,1-2,3.5L114.76,244.26c-1.12.65-2,.12-2-1.17v-34A4.49,4.49,0,0,1,114.76,205.6Z" style="fill:#fafafa"></path><path d="M113.33,207.12l-3.8-2.2a4.13,4.13,0,0,0-.6,2v34a1.43,1.43,0,0,0,.58,1.3c.37.22,3.43,2,3.78,2.18a1.44,1.44,0,0,1-.55-1.29v-34A4.08,4.08,0,0,1,113.33,207.12Z" style="fill:#6C63FF"></path><path d="M113.33,207.12l-3.8-2.2a4.13,4.13,0,0,0-.6,2v34a1.43,1.43,0,0,0,.58,1.3c.37.22,3.43,2,3.78,2.18a1.44,1.44,0,0,1-.55-1.29v-34A4.08,4.08,0,0,1,113.33,207.12Z" style="opacity:0.15"></path><path d="M264.09,120.52c.18,0,.19.46.19.51v34a3.56,3.56,0,0,1-1.56,2.69L114.29,243.45a.87.87,0,0,1-.44.15c-.18,0-.18-.46-.18-.51v-34a3.56,3.56,0,0,1,1.56-2.7l148.43-85.73a.91.91,0,0,1,.43-.16m0-.93a1.88,1.88,0,0,0-.9.27L114.76,205.6a4.49,4.49,0,0,0-2,3.51v34c0,.92.46,1.45,1.12,1.45a1.83,1.83,0,0,0,.91-.28l148.43-85.74a4.45,4.45,0,0,0,2-3.5V121c0-.91-.45-1.44-1.12-1.44Z" style="fill:#6C63FF"></path></g><path d="M141.33,202.67c2,1.16,3.26,3.66,3.26,7.21,0,7.11-5,15.75-11.14,19.3-3.08,1.78-5.86,1.95-7.88.78L122,227.91c-2-1.16-3.27-3.66-3.27-7.21,0-7.11,5-15.75,11.15-19.31,3.07-1.77,5.86-1.94,7.88-.78Z" style="fill:#6C63FF"></path><path d="M141.33,202.67c2,1.16,3.26,3.66,3.26,7.21,0,7.11-5,15.75-11.14,19.3-3.08,1.78-5.86,1.95-7.88.78L122,227.91c-2-1.16-3.27-3.66-3.27-7.21,0-7.11,5-15.75,11.15-19.31,3.07-1.77,5.86-1.94,7.88-.78Z" style="opacity:0.2"></path><path d="M133.45,229.18c-3.08,1.78-5.86,1.95-7.88.78s-3.26-3.66-3.26-7.21c0-7.11,5-15.75,11.14-19.3,3.08-1.78,5.86-1.95,7.88-.78s3.26,3.66,3.26,7.21C144.59,217,139.6,225.63,133.45,229.18Z" style="fill:#6C63FF"></path><path d="M139.37,211.3,134.65,214v-6.29c0-.88-.54-1.29-1.2-.91a2.88,2.88,0,0,0-1.2,2.29v6.3l-4.72,2.72a2.9,2.9,0,0,0-1.2,2.3c0,.88.54,1.29,1.2.9l4.72-2.72v6.29c0,.88.54,1.29,1.2.91a2.88,2.88,0,0,0,1.2-2.29v-6.3l4.72-2.72a2.9,2.9,0,0,0,1.2-2.3C140.57,211.32,140,210.91,139.37,211.3Z" style="fill:#fafafa"></path><path d="M152.26,199.69l104.52-60.37a6,6,0,0,0,2.5-4.76c0-1.84-1.12-2.69-2.5-1.89L152.26,193a6,6,0,0,0-2.49,4.76C149.77,199.64,150.89,200.48,152.26,199.69Zm104.52-53L152.26,207a6,6,0,0,0-2.49,4.77c0,1.84,1.12,2.68,2.49,1.88l104.52-60.36a6,6,0,0,0,2.5-4.77h0C259.28,146.72,258.16,145.87,256.78,146.67Z" style="fill:#e0e0e0"></path><g id="freepik--image--inject-20"><g style="opacity:0.2"><path d="M106.39,256.25l150.18-86.74c.63-.37,1.15-.07,1.15.66V206a2.56,2.56,0,0,1-1.15,2L106.39,294.74c-.63.36-1.14.07-1.14-.67V258.24A2.55,2.55,0,0,1,106.39,256.25Z"></path></g><path d="M264.54,174.25a1.52,1.52,0,0,0-1.35.19L114.76,260.18a4.45,4.45,0,0,0-2,3.51v34a1.46,1.46,0,0,0,.55,1.29c-.35-.23-3.41-2-3.78-2.18a1.44,1.44,0,0,1-.58-1.3v-34a4.47,4.47,0,0,1,2-3.51l148.42-85.75a1.44,1.44,0,0,1,1.45-.13C261.16,172.31,263.82,173.81,264.54,174.25Z" style="fill:#6C63FF"></path><g style="opacity:0.2"><path d="M264.54,174.25c-.72-.44-3.38-1.94-3.71-2.14a1.44,1.44,0,0,0-1.45.13L111,258a4,4,0,0,0-1.43,1.51l3.8,2.19a4.17,4.17,0,0,1,1.43-1.51l148.43-85.74A1.52,1.52,0,0,1,264.54,174.25Z" style="fill:#fff"></path></g><path d="M114.76,260.18l148.43-85.74c1.12-.64,2-.12,2,1.17v34a4.48,4.48,0,0,1-2,3.51L114.76,298.84c-1.12.64-2,.12-2-1.17v-34A4.47,4.47,0,0,1,114.76,260.18Z" style="fill:#fafafa"></path><path d="M113.33,261.69l-3.8-2.19a4.1,4.1,0,0,0-.6,2v34a1.44,1.44,0,0,0,.58,1.3c.37.22,3.43,2,3.78,2.18a1.46,1.46,0,0,1-.55-1.29v-34A4.11,4.11,0,0,1,113.33,261.69Z" style="fill:#6C63FF"></path><path d="M113.33,261.69l-3.8-2.19a4.1,4.1,0,0,0-.6,2v34a1.44,1.44,0,0,0,.58,1.3c.37.22,3.43,2,3.78,2.18a1.46,1.46,0,0,1-.55-1.29v-34A4.11,4.11,0,0,1,113.33,261.69Z" style="opacity:0.15"></path><path d="M264.09,175.1c.18,0,.19.46.19.51v34a3.56,3.56,0,0,1-1.56,2.7L114.29,298a1,1,0,0,1-.44.15c-.18,0-.18-.46-.18-.51v-34a3.56,3.56,0,0,1,1.56-2.7l148.43-85.74a1,1,0,0,1,.43-.15m0-.94a1.8,1.8,0,0,0-.9.28L114.76,260.18a4.47,4.47,0,0,0-2,3.51v34c0,.91.46,1.44,1.12,1.44a1.81,1.81,0,0,0,.91-.27L263.19,213.1a4.48,4.48,0,0,0,2-3.51v-34c0-.92-.45-1.45-1.12-1.45Z" style="fill:#6C63FF"></path></g><path d="M141.33,257.24c2,1.17,3.26,3.66,3.26,7.22,0,7.1-5,15.75-11.14,19.3-3.08,1.78-5.86,1.94-7.88.78L122,282.49c-2-1.17-3.27-3.66-3.27-7.22,0-7.1,5-15.75,11.15-19.3,3.07-1.78,5.86-1.94,7.88-.78Z" style="fill:#6C63FF"></path><path d="M141.33,257.24c2,1.17,3.26,3.66,3.26,7.22,0,7.1-5,15.75-11.14,19.3-3.08,1.78-5.86,1.94-7.88.78L122,282.49c-2-1.17-3.27-3.66-3.27-7.22,0-7.1,5-15.75,11.15-19.3,3.07-1.78,5.86-1.94,7.88-.78Z" style="opacity:0.2"></path><path d="M133.45,283.76c-3.08,1.78-5.86,1.94-7.88.78s-3.26-3.66-3.26-7.21c0-7.11,5-15.75,11.14-19.31,3.08-1.77,5.86-1.94,7.88-.78s3.26,3.66,3.26,7.22C144.59,271.56,139.6,280.21,133.45,283.76Z" style="fill:#6C63FF"></path><path d="M139.37,265.87l-4.72,2.73v-6.29c0-.89-.54-1.29-1.2-.91a2.88,2.88,0,0,0-1.2,2.29V270l-4.72,2.73a2.88,2.88,0,0,0-1.2,2.29c0,.89.54,1.29,1.2.91l4.72-2.73v6.3c0,.88.54,1.29,1.2.9a2.86,2.86,0,0,0,1.2-2.29V271.8l4.72-2.73a2.88,2.88,0,0,0,1.2-2.29C140.57,265.9,140,265.49,139.37,265.87Z" style="fill:#fafafa"></path><path d="M152.26,254.26,256.78,193.9a6,6,0,0,0,2.5-4.77c0-1.83-1.12-2.68-2.5-1.88L152.26,247.61a6,6,0,0,0-2.49,4.77C149.77,254.21,150.89,255.06,152.26,254.26Zm104.52-53L152.26,261.61a6,6,0,0,0-2.49,4.77c0,1.83,1.12,2.68,2.49,1.88l104.52-60.37a6,6,0,0,0,2.5-4.76h0C259.28,201.29,258.16,200.45,256.78,201.24Z" style="fill:#e0e0e0"></path><g id="freepik--image--inject-20"><g style="opacity:0.2"><path d="M106.39,310.83l150.18-86.74c.63-.37,1.15-.07,1.15.66v35.83a2.53,2.53,0,0,1-1.15,2L106.39,349.31c-.63.37-1.14.07-1.14-.66V312.81A2.52,2.52,0,0,1,106.39,310.83Z"></path></g><path d="M264.54,228.83a1.49,1.49,0,0,0-1.35.19L114.76,314.75a4.48,4.48,0,0,0-2,3.51v34a1.44,1.44,0,0,0,.55,1.29c-.35-.22-3.41-1.95-3.78-2.18a1.42,1.42,0,0,1-.58-1.3v-34a4.49,4.49,0,0,1,2-3.51l148.42-85.74a1.41,1.41,0,0,1,1.45-.13C261.16,226.88,263.82,228.39,264.54,228.83Z" style="fill:#6C63FF"></path><g style="opacity:0.2"><path d="M264.54,228.83c-.72-.44-3.38-2-3.71-2.14a1.41,1.41,0,0,0-1.45.13L111,312.56a4.16,4.16,0,0,0-1.43,1.51l3.8,2.2a4.2,4.2,0,0,1,1.43-1.52L263.19,229A1.49,1.49,0,0,1,264.54,228.83Z" style="fill:#fff"></path></g><path d="M114.76,314.75,263.19,229c1.12-.65,2-.12,2,1.17v34a4.48,4.48,0,0,1-2,3.51L114.76,353.41c-1.12.65-2,.13-2-1.17v-34A4.49,4.49,0,0,1,114.76,314.75Z" style="fill:#fafafa"></path><path d="M113.33,316.27l-3.8-2.2a4.16,4.16,0,0,0-.6,2v34a1.42,1.42,0,0,0,.58,1.3c.37.23,3.43,2,3.78,2.18a1.44,1.44,0,0,1-.55-1.29v-34A4.08,4.08,0,0,1,113.33,316.27Z" style="fill:#6C63FF"></path><path d="M113.33,316.27l-3.8-2.2a4.16,4.16,0,0,0-.6,2v34a1.42,1.42,0,0,0,.58,1.3c.37.23,3.43,2,3.78,2.18a1.44,1.44,0,0,1-.55-1.29v-34A4.08,4.08,0,0,1,113.33,316.27Z" style="opacity:0.15"></path><path d="M264.09,229.68c.18,0,.19.46.19.51v34a3.56,3.56,0,0,1-1.56,2.7L114.29,352.6a.93.93,0,0,1-.44.16c-.18,0-.18-.46-.18-.52v-34a3.54,3.54,0,0,1,1.56-2.69l148.43-85.74a.85.85,0,0,1,.43-.15m0-.94a1.8,1.8,0,0,0-.9.28L114.76,314.75a4.49,4.49,0,0,0-2,3.51v34c0,.92.46,1.45,1.12,1.45a1.83,1.83,0,0,0,.91-.28l148.43-85.73a4.48,4.48,0,0,0,2-3.51v-34c0-.92-.45-1.45-1.12-1.45Z" style="fill:#6C63FF"></path></g><path d="M141.33,311.82c2,1.16,3.26,3.66,3.26,7.21,0,7.11-5,15.75-11.14,19.31-3.08,1.77-5.86,1.94-7.88.78L122,337.07c-2-1.17-3.27-3.67-3.27-7.22,0-7.11,5-15.75,11.15-19.3,3.07-1.78,5.86-1.95,7.88-.78Z" style="fill:#6C63FF"></path><path d="M141.33,311.82c2,1.16,3.26,3.66,3.26,7.21,0,7.11-5,15.75-11.14,19.31-3.08,1.77-5.86,1.94-7.88.78L122,337.07c-2-1.17-3.27-3.67-3.27-7.22,0-7.11,5-15.75,11.15-19.3,3.07-1.78,5.86-1.95,7.88-.78Z" style="opacity:0.2"></path><path d="M133.45,338.34c-3.08,1.77-5.86,1.94-7.88.78s-3.26-3.66-3.26-7.22c0-7.11,5-15.75,11.14-19.3,3.08-1.78,5.86-2,7.88-.78s3.26,3.66,3.26,7.21C144.59,326.14,139.6,334.78,133.45,338.34Z" style="fill:#6C63FF"></path><path d="M139.37,320.45l-4.72,2.72v-6.29c0-.88-.54-1.29-1.2-.91a2.9,2.9,0,0,0-1.2,2.3v6.29l-4.72,2.73a2.86,2.86,0,0,0-1.2,2.29c0,.88.54,1.29,1.2.91l4.72-2.73v6.29c0,.89.54,1.29,1.2.91a2.88,2.88,0,0,0,1.2-2.29v-6.3l4.72-2.72a2.88,2.88,0,0,0,1.2-2.29C140.57,320.47,140,320.07,139.37,320.45Z" style="fill:#fafafa"></path><path d="M152.26,308.84l104.52-60.37a6,6,0,0,0,2.5-4.76c0-1.84-1.12-2.68-2.5-1.89L152.26,302.19a6,6,0,0,0-2.49,4.76C149.77,308.79,150.89,309.63,152.26,308.84Zm104.52-53L152.26,316.19a6,6,0,0,0-2.49,4.76c0,1.84,1.12,2.68,2.49,1.89l104.52-60.37a6,6,0,0,0,2.5-4.76h0C259.28,255.87,258.16,255,256.78,255.82Z" style="fill:#e0e0e0"></path><g id="freepik--image--inject-20"><g style="opacity:0.2"><path d="M106.39,365.4l150.18-86.74c.63-.36,1.15-.07,1.15.66v35.84a2.56,2.56,0,0,1-1.15,2L106.39,403.89c-.63.37-1.14.07-1.14-.66V367.39A2.55,2.55,0,0,1,106.39,365.4Z"></path></g><path d="M264.54,283.41a1.49,1.49,0,0,0-1.35.18L114.76,369.33a4.48,4.48,0,0,0-2,3.51v34a1.44,1.44,0,0,0,.55,1.29c-.35-.22-3.41-2-3.78-2.18a1.43,1.43,0,0,1-.58-1.3v-34a4.49,4.49,0,0,1,2-3.51L259.38,281.4a1.44,1.44,0,0,1,1.45-.14C261.16,281.46,263.82,283,264.54,283.41Z" style="fill:#6C63FF"></path><g style="opacity:0.2"><path d="M264.54,283.41c-.72-.44-3.38-2-3.71-2.15a1.44,1.44,0,0,0-1.45.14L111,367.14a4.09,4.09,0,0,0-1.43,1.51l3.8,2.2a4.12,4.12,0,0,1,1.43-1.52l148.43-85.74A1.49,1.49,0,0,1,264.54,283.41Z" style="fill:#fff"></path></g><path d="M114.76,369.33l148.43-85.74c1.12-.64,2-.12,2,1.17v34a4.45,4.45,0,0,1-2,3.51L114.76,408c-1.12.65-2,.12-2-1.17v-34A4.49,4.49,0,0,1,114.76,369.33Z" style="fill:#fafafa"></path><path d="M113.33,370.85l-3.8-2.2a4.13,4.13,0,0,0-.6,2v34a1.43,1.43,0,0,0,.58,1.3c.37.22,3.43,2,3.78,2.18a1.44,1.44,0,0,1-.55-1.29v-34A4,4,0,0,1,113.33,370.85Z" style="fill:#6C63FF"></path><path d="M113.33,370.85l-3.8-2.2a4.13,4.13,0,0,0-.6,2v34a1.43,1.43,0,0,0,.58,1.3c.37.22,3.43,2,3.78,2.18a1.44,1.44,0,0,1-.55-1.29v-34A4,4,0,0,1,113.33,370.85Z" style="opacity:0.15"></path><path d="M264.09,284.25c.18,0,.19.46.19.51v34a3.56,3.56,0,0,1-1.56,2.7L114.29,407.18a.87.87,0,0,1-.44.15c-.18,0-.18-.46-.18-.51v-34a3.56,3.56,0,0,1,1.56-2.7L263.66,284.4a1,1,0,0,1,.43-.15m0-.93a1.88,1.88,0,0,0-.9.27L114.76,369.33a4.49,4.49,0,0,0-2,3.51v34c0,.92.46,1.45,1.12,1.45a1.83,1.83,0,0,0,.91-.28l148.43-85.74a4.45,4.45,0,0,0,2-3.51v-34c0-.91-.45-1.44-1.12-1.44Z" style="fill:#6C63FF"></path></g><path d="M141.33,366.4c2,1.16,3.26,3.66,3.26,7.21,0,7.11-5,15.75-11.14,19.3-3.08,1.78-5.86,1.95-7.88.78L122,391.64c-2-1.16-3.27-3.66-3.27-7.21,0-7.11,5-15.75,11.15-19.31,3.07-1.77,5.86-1.94,7.88-.78Z" style="fill:#6C63FF"></path><path d="M141.33,366.4c2,1.16,3.26,3.66,3.26,7.21,0,7.11-5,15.75-11.14,19.3-3.08,1.78-5.86,1.95-7.88.78L122,391.64c-2-1.16-3.27-3.66-3.27-7.21,0-7.11,5-15.75,11.15-19.31,3.07-1.77,5.86-1.94,7.88-.78Z" style="opacity:0.2"></path><path d="M133.45,392.91c-3.08,1.78-5.86,1.95-7.88.78s-3.26-3.66-3.26-7.21c0-7.11,5-15.75,11.14-19.3,3.08-1.78,5.86-1.95,7.88-.79s3.26,3.67,3.26,7.22C144.59,380.72,139.6,389.36,133.45,392.91Z" style="fill:#6C63FF"></path><path d="M139.37,375l-4.72,2.72v-6.29c0-.89-.54-1.29-1.2-.91a2.88,2.88,0,0,0-1.2,2.29v6.3l-4.72,2.72a2.88,2.88,0,0,0-1.2,2.29c0,.89.54,1.29,1.2.91l4.72-2.72v6.29c0,.88.54,1.29,1.2.91a2.9,2.9,0,0,0,1.2-2.3V381l4.72-2.72a2.9,2.9,0,0,0,1.2-2.3C140.57,375.05,140,374.64,139.37,375Z" style="fill:#fafafa"></path><path d="M152.26,363.42l104.52-60.37a6,6,0,0,0,2.5-4.77c0-1.83-1.12-2.68-2.5-1.88L152.26,356.77a6,6,0,0,0-2.49,4.76C149.77,363.37,150.89,364.21,152.26,363.42Zm104.52-53L152.26,370.76a6,6,0,0,0-2.49,4.77c0,1.83,1.12,2.68,2.49,1.88l104.52-60.36a6,6,0,0,0,2.5-4.77h0C259.28,310.45,258.16,309.6,256.78,310.4Z" style="fill:#e0e0e0"></path></g></g><g id="freepik--Arrows--inject-20"><g id="freepik--arrows--inject-20"><g id="freepik--Arrow--inject-20"><polygon points="291.42 383.04 298.24 386.97 309.47 380.49 309.47 253.31 316.96 248.99 304.12 239.12 297.29 235.18 283.94 260.18 290.76 264.12 291.42 263.73 291.42 383.04" style="fill:#6C63FF"></polygon><polygon points="291.42 383.04 298.24 386.97 309.47 380.49 309.47 253.31 316.96 248.99 304.12 239.12 297.29 235.18 283.94 260.18 290.76 264.12 291.42 263.73 291.42 383.04" style="fill:#fff;opacity:0.8"></polygon><polygon id="freepik--down-arrow--inject-20" points="298.24 386.97 309.47 380.49 309.47 253.31 316.96 248.99 304.12 239.12 290.76 264.12 298.24 259.8 298.24 386.97" style="fill:#6C63FF"></polygon><polygon id="freepik--down-arrow--inject-20" points="298.24 386.97 309.47 380.49 309.47 253.31 316.96 248.99 304.12 239.12 290.76 264.12 298.24 259.8 298.24 386.97" style="fill:#fff;opacity:0.7000000000000001"></polygon><polygon points="291.42 383.04 298.24 386.97 298.24 259.8 291.42 263.73 291.42 383.04" style="fill:#6C63FF"></polygon><polygon points="291.42 383.04 298.24 386.97 298.24 259.8 291.42 263.73 291.42 383.04" style="fill:#fff;opacity:0.5"></polygon></g><g id="freepik--arrow--inject-20"><polygon points="323.34 366.55 328.45 369.5 336.87 364.64 336.87 290.54 342.48 287.3 332.85 279.9 327.74 276.95 317.73 295.68 322.84 298.63 323.34 298.35 323.34 366.55" style="fill:#f5f5f5"></polygon><polygon id="freepik--down-arrow--inject-20" points="328.45 369.5 336.87 364.64 336.87 290.54 342.48 287.3 332.85 279.9 322.84 298.63 328.45 295.39 328.45 369.5" style="fill:#ebebeb"></polygon><polygon points="323.34 366.55 328.45 369.5 328.45 295.39 323.34 298.35 323.34 366.55" style="fill:#e0e0e0"></polygon></g></g></g><g id="freepik--Icons--inject-20"><path id="freepik--like--inject-20" d="M477.86,65.92a5.93,5.93,0,0,0-1.33-1.87,4.28,4.28,0,0,0,.55-4.44,3.87,3.87,0,0,0-2.89-2.27A4.37,4.37,0,0,0,474,54a4.14,4.14,0,0,0-5.44-2.08l-9.28,4.39a14.78,14.78,0,0,0-4.81-7.92,5.42,5.42,0,0,0-6.74-.33c-1.08.79-.89,1.51-.76,1.79s.34.65.64,1.2c.73,1.34,2.44,4.47,2.49,5.29s-.74,6.52-1.29,10.08a.73.73,0,0,0,.06.41l8.93,18.86a.72.72,0,0,0,.84.39l.11,0,16.68-7.9a4.53,4.53,0,0,0,2.55-5.86,7.4,7.4,0,0,0-1.09-1.68A4.78,4.78,0,0,0,477.86,65.92Zm-2.39,4a.74.74,0,0,0-.4.54.74.74,0,0,0,.24.64,6.13,6.13,0,0,1,1.34,1.85,3.16,3.16,0,0,1-1.87,4l-16,7.59-8.53-18c.24-1.58,1.35-8.9,1.27-10.16-.06-1.06-1.29-3.39-2.66-5.89l-.52-1a3.41,3.41,0,0,1,1.75-.85,3.85,3.85,0,0,1,3.42.89,13.55,13.55,0,0,1,4.57,8,.71.71,0,0,0,.38.5.68.68,0,0,0,.62,0l10.09-4.78a2.73,2.73,0,0,1,3.55,1.41,3,3,0,0,1-.2,3,.71.71,0,0,0,0,.79.72.72,0,0,0,.73.3,2.36,2.36,0,0,1,2.57,1.49,2.79,2.79,0,0,1-.79,3.34.69.69,0,0,0-.27.64.72.72,0,0,0,.4.57,3.67,3.67,0,0,1,1.45,1.75C476.94,67.31,476.48,69.39,475.47,69.87Zm-28-3a.72.72,0,0,0-.95-.34l-7.27,3.45a.72.72,0,0,0-.34.94l10.4,22a.72.72,0,0,0,.83.38l.12,0,7.27-3.44a.68.68,0,0,0,.36-.4.75.75,0,0,0,0-.55Zm2.82,24.75L440.5,70.92l6-2.83,9.78,20.66Z" style="fill:#e0e0e0"></path><path id="freepik--like--inject-20" d="M28.63,163.09a6.15,6.15,0,0,0-.51,1.51,3.6,3.6,0,0,0,3.11,4l14.41,2.84h.09a.58.58,0,0,0,.57-.46l3.21-16.29a.53.53,0,0,0,0-.33c-1.12-2.64-2.83-6.82-3-7.52a22.15,22.15,0,0,1,.88-4.57c.13-.49.23-.87.26-1.06s.05-.82-.93-1.23a4.33,4.33,0,0,0-5.14,1.58,11.71,11.71,0,0,0-2.16,7l-8-1.57a3.32,3.32,0,0,0-3.8,2.67,3.53,3.53,0,0,0,.48,2.61,3.05,3.05,0,0,0-1.79,2.31A3.45,3.45,0,0,0,27.59,158a4.72,4.72,0,0,0-.66,1.7A3.81,3.81,0,0,0,28.63,163.09Zm-.59-3.2a2.86,2.86,0,0,1,.78-1.63.58.58,0,0,0,.2-.52.56.56,0,0,0-.34-.44,2.22,2.22,0,0,1-1.26-2.43,1.88,1.88,0,0,1,1.69-1.65.56.56,0,0,0,.51-.37.58.58,0,0,0-.16-.61,2.43,2.43,0,0,1-.73-2.29,2.16,2.16,0,0,1,2.46-1.78l8.71,1.71a.56.56,0,0,0,.67-.59,10.78,10.78,0,0,1,2-7.07A3.06,3.06,0,0,1,45,140.86a2.72,2.72,0,0,1,1.51.32l-.21.84c-.57,2.19-1.06,4.23-.91,5.06.19,1,2.48,6.42,3,7.59L45.3,170.23l-13.85-2.72a2.51,2.51,0,0,1-2.22-2.69,4.93,4.93,0,0,1,.67-1.69.58.58,0,0,0,.06-.54.54.54,0,0,0-.41-.34A2.56,2.56,0,0,1,28,159.89ZM46.83,173.4a.53.53,0,0,0,.09.42.53.53,0,0,0,.36.24l6.28,1.23.09,0a.58.58,0,0,0,.57-.46l3.73-19a.55.55,0,0,0-.09-.43.57.57,0,0,0-.36-.24L51.22,154a.55.55,0,0,0-.66.44Zm1.22-.34,3.51-17.85,5.17,1-3.51,17.85Z" style="fill:#e0e0e0"></path><path id="freepik--like--inject-20" d="M458,240a5.26,5.26,0,0,0-.69,1.15,3,3,0,0,0,1.83,3.87l11.33,4.92.08,0a.48.48,0,0,0,.55-.27l5.57-12.81a.45.45,0,0,0,0-.28c-.44-2.37-1.09-6.11-1.07-6.71a18.2,18.2,0,0,1,1.55-3.59c.19-.38.34-.68.4-.83s.19-.67-.55-1.18a3.64,3.64,0,0,0-4.5.37,9.91,9.91,0,0,0-3.05,5.4l-6.3-2.74a2.78,2.78,0,0,0-3.6,1.51,2.94,2.94,0,0,0-.08,2.23,2.54,2.54,0,0,0-1.88,1.58,2.89,2.89,0,0,0,.46,3,3.8,3.8,0,0,0-.85,1.27A3.21,3.21,0,0,0,458,240Zm.1-2.74a2.47,2.47,0,0,1,.93-1.2.46.46,0,0,0,.26-.39.49.49,0,0,0-.19-.42,1.86,1.86,0,0,1-.61-2.22,1.58,1.58,0,0,1,1.69-1.05.48.48,0,0,0,.47-.75,2,2,0,0,1-.19-2,1.82,1.82,0,0,1,2.34-1l6.85,3a.48.48,0,0,0,.42,0,.45.45,0,0,0,.24-.34,9,9,0,0,1,2.89-5.46,2.55,2.55,0,0,1,2.27-.67,2.21,2.21,0,0,1,1.18.53c-.07.15-.18.38-.32.65a15.27,15.27,0,0,0-1.66,4c0,.84.87,5.72,1.07,6.77l-5.32,12.24-10.9-4.74a2.11,2.11,0,0,1-1.33-2.61,4.11,4.11,0,0,1,.85-1.27.47.47,0,0,0,.15-.43.49.49,0,0,0-.28-.36A2.15,2.15,0,0,1,458.13,237.25Zm13,14.49a.48.48,0,0,0,0,.37.43.43,0,0,0,.25.26l4.94,2.15.07,0a.48.48,0,0,0,.55-.28l6.49-14.91a.5.5,0,0,0,0-.36.47.47,0,0,0-.26-.26l-4.93-2.15a.47.47,0,0,0-.63.25Zm1.07-.05,6.1-14,4.06,1.77-6.1,14Z" style="fill:#e0e0e0"></path><path id="freepik--like--inject-20" d="M404.73,38.72c0-.83,1.71-3.81,2-4.38s-2.34-2-4.1-.3a9.12,9.12,0,0,0-2.95,5.46l-6.54-2.92a2.21,2.21,0,0,0-2.86,1.18,2.41,2.41,0,0,0,.21,2.38,2,2,0,0,0-2.13,1.26,2.24,2.24,0,0,0,.71,2.69,2.67,2.67,0,0,0-1.12,1.36,2.47,2.47,0,0,0,1,2.73,4.39,4.39,0,0,0-.95,1.36,2.48,2.48,0,0,0,1.49,3.12l10.81,4.83,5.46-12.23S404.7,39.56,404.73,38.72Zm2.69,6.89-6.35,14.23,4.72,2.1,6.34-14.23Zm-3,14a.92.92,0,1,1,.92-.92A.92.92,0,0,1,404.41,59.59Z" style="fill:#ebebeb"></path><path id="freepik--like--inject-20" d="M47.45,65.21,59.77,91.64,83.15,80.75c3-1.43,4.16-4.64,3.13-6.86A9.67,9.67,0,0,0,84.17,71c2-.93,2.76-4.45,2-6a5.92,5.92,0,0,0-2.48-2.93,4.91,4.91,0,0,0,1.44-5.88,4.35,4.35,0,0,0-4.68-2.66,5.27,5.27,0,0,0,.37-5.19c-.78-1.68-3.29-3.86-6.27-2.47L60.47,52.44a19.76,19.76,0,0,0-6.61-11.79c-3.9-3.58-9.49-.42-8.92.81s4.31,7.66,4.41,9.47S47.45,65.21,47.45,65.21Zm-13.9,5.55,14.32,30.76,10.2-4.75L43.73,66Zm15.2,23.63a2,2,0,1,1,2,2A2,2,0,0,1,48.75,94.39Z" style="fill:#ebebeb"></path><g id="freepik--check--inject-20"><path d="M460.55,154.39a3.62,3.62,0,0,1-2.65-1.15l-8.24-8.79a3.64,3.64,0,0,1,5.31-5l5.35,5.71,12.66-16a3.63,3.63,0,1,1,5.7,4.5L463.41,153a3.63,3.63,0,0,1-2.7,1.38Z" style="fill:#ebebeb"></path></g><g id="freepik--check--inject-20"><path d="M41.38,245a3.62,3.62,0,0,1-2.66-1.15L30.49,235a3.63,3.63,0,1,1,5.3-5l5.35,5.71,12.66-16a3.64,3.64,0,0,1,5.71,4.5L44.23,243.6a3.63,3.63,0,0,1-2.7,1.38Z" style="fill:#ebebeb"></path></g><g id="freepik--check--inject-20"><path d="M136.52,68.83a4.93,4.93,0,0,1-3.61-1.57l-9.49-10.13a4.93,4.93,0,0,1,3.77-8.3,4.85,4.85,0,0,1,3.44,1.56l5.57,5.94,14-17.78a4.88,4.88,0,0,1,3.29-1.85,5,5,0,0,1,3.64,1,4.93,4.93,0,0,1,.81,6.93L140.39,67a4.93,4.93,0,0,1-3.67,1.87ZM127,50.32a3.41,3.41,0,0,0-2.34.93,3.45,3.45,0,0,0-.16,4.86L134,66.24a3.44,3.44,0,0,0,2.51,1.09h.13a3.41,3.41,0,0,0,2.56-1.3l17.6-22.29a3.44,3.44,0,1,0-5.4-4.25L136.29,58.63l-6.76-7.22a3.38,3.38,0,0,0-2.39-1.08Z" style="fill:#e0e0e0"></path></g></g></svg>
